<svg data-v-aa5e1046="" width="33" height="18" viewBox="0 0 33 18" fill="none" xmlns="http://www.w3.org/2000/svg"><path data-v-aa5e1046="" d="M10.9012 4.60644C6.42922 3.53281 3.30403 6.08414 1.38172 3.21534C1.37596 3.20378 1.37021 3.19801 1.36445 3.18647C1.31266 3.10566 1.38172 2.99022 1.4738 3.0133C5.43354 3.95996 6.07815 3.37118 7.74147 3.57321C9.27814 3.75792 10.9012 4.60644 10.9012 4.60644Z" fill="url(#paint0_linear_2117_6017)"></path> <path data-v-aa5e1046="" d="M11.6898 5.32795C7.75298 4.74496 4.96159 7.69456 2.85511 5.42608C2.84935 5.42031 2.8436 5.40877 2.83209 5.403C2.77453 5.33951 2.81482 5.22406 2.90115 5.22983C6.4983 5.49535 7.34434 4.86041 8.82356 4.79691C10.2048 4.73919 11.6898 5.32795 11.6898 5.32795Z" fill="url(#paint1_linear_2117_6017)"></path> <path data-v-aa5e1046="" d="M12.4206 6.2573C8.98457 5.78976 7.51125 8.88366 4.72562 6.99038C4.71986 6.98461 4.71411 6.97884 4.7026 6.9673C4.64505 6.91534 4.66231 6.76527 4.74288 6.76527C7.78751 6.77104 8.58175 6.06105 9.86528 5.90521C11.6034 5.6974 12.4206 6.2573 12.4206 6.2573Z" fill="url(#paint2_linear_2117_6017)"></path> <path data-v-aa5e1046="" d="M13.9688 7.27902C12.1731 7.4695 12.4552 8.91256 10.4869 8.58931C10.2279 8.5489 10.2854 8.36419 10.4005 8.32957C12.0524 7.85624 12.0524 7.53877 12.6452 7.3021C13.2092 7.08854 13.9688 7.27902 13.9688 7.27902Z" fill="url(#paint3_linear_2117_6017)"></path> <path data-v-aa5e1046="" d="M13.1573 6.83453C10.5674 6.88648 9.90554 8.75091 7.72421 8.14482C7.39038 8.05246 7.5055 7.79848 7.68392 7.7754C10.1818 7.37712 10.3026 7.0077 11.2292 6.78834C12.0983 6.58055 13.1573 6.83453 13.1573 6.83453Z" fill="url(#paint4_linear_2117_6017)"></path> <path data-v-aa5e1046="" d="M11.6781 4.6007C11.6608 4.62955 11.6206 4.63532 11.5918 4.62378C11.0565 4.31785 10.5559 3.95997 9.98039 3.56746C9.43932 3.20381 8.2767 2.7074 5.85943 2.82285C4.70834 2.88057 2.9587 3.11723 1.15149 1.8762C0.714072 1.58182 0.270902 1.07963 0.0406843 0.612091C0.0176641 0.57168 0.00615417 0.519727 0.00039913 0.467775C-0.00535592 0.415822 0.0521941 0.375427 0.104005 0.392739C4.57597 2.19368 5.85367 1.48947 8.66808 2.14172C9.82487 2.41303 11.258 4.09852 11.6725 4.51988C11.6954 4.53721 11.6954 4.57183 11.6781 4.6007Z" fill="url(#paint5_linear_2117_6017)"></path> <path data-v-aa5e1046="" d="M15.5689 14.4712C15.517 14.6327 15.5285 14.8233 15.425 14.9618C15.2983 15.1466 14.9876 15.1639 14.8379 14.9964C14.7401 14.9099 14.7401 14.7714 14.7055 14.6617C14.4811 13.6747 14.2624 12.6875 14.0437 11.6947C14.0207 11.6255 14.0437 11.5793 14.1127 11.5505C14.2221 11.5215 14.2336 11.6428 14.2681 11.7121C14.5156 12.3875 14.7458 13.0685 14.9991 13.7438C15.0796 13.9748 15.3502 13.8997 15.5285 13.9575C15.7185 14.0786 15.6033 14.3038 15.5689 14.4712Z" fill="url(#paint6_linear_2117_6017)"></path> <path data-v-aa5e1046="" d="M15.8623 11.7467C15.8854 11.8102 15.8508 11.8852 15.7818 11.8967C15.7416 11.9025 15.707 11.8967 15.6955 11.839C15.5285 11.5042 15.3846 11.1522 15.212 10.8174C14.9876 10.6268 14.7516 10.4306 14.6135 10.1593C14.366 9.72063 14.389 9.14918 14.6652 8.7278C14.6882 8.69893 14.7055 8.66431 14.7286 8.63544C14.7689 8.57773 14.8552 8.58927 14.8781 8.65854C14.8954 8.71049 14.9069 8.76243 14.93 8.80861C15.2407 9.78412 15.5401 10.7712 15.8623 11.7467Z" fill="url(#paint7_linear_2117_6017)"></path> <path data-v-aa5e1046="" d="M15.9084 7.10002C15.8969 7.35977 15.7991 7.6022 15.7357 7.85041C15.7299 7.86772 15.7243 7.87926 15.707 7.88503C15.6667 7.90236 15.6265 7.87349 15.6265 7.8331C15.6321 7.49253 15.753 7.15774 15.6667 6.82294C15.5401 6.36694 15.2293 5.96867 15.2063 5.4838C15.1947 5.22982 15.258 4.98161 15.3099 4.73341C15.1256 4.34667 15.0393 3.9022 15.1371 3.48084C15.1544 3.42888 15.1602 3.42888 15.189 3.46928C15.3675 3.72904 15.6033 3.98879 15.6033 4.32934C15.5804 4.81421 15.3156 5.29908 15.4941 5.78395C15.6379 6.21687 15.9486 6.62092 15.9084 7.10002Z" fill="url(#paint8_linear_2117_6017)"></path> <path data-v-aa5e1046="" d="M17.4278 5.42609C17.4163 6.06104 16.8638 6.56899 16.9272 7.21549C16.9272 7.4637 16.9904 7.71767 16.9616 7.96588C16.9213 8.18521 16.6738 8.21985 16.4955 8.27181C16.3919 8.31799 16.2768 8.19677 16.3056 8.09287C16.3056 7.34248 16.3056 6.58632 16.3056 5.83593C16.3171 5.52423 16.3919 5.1952 16.6048 4.95855C16.7372 4.80269 16.8753 4.64685 17.0191 4.49099C17.0479 4.45635 17.0652 4.41596 17.0596 4.37555C17.0479 4.23702 17.0191 4.1158 17.0825 3.95417C17.1803 3.75215 17.3071 3.63093 17.4393 3.49817C17.4624 3.47509 17.4968 3.48663 17.5027 3.51548C17.5948 3.92532 17.5027 4.36978 17.3127 4.7392C17.3588 4.95855 17.4278 5.18943 17.4278 5.42609Z" fill="url(#paint9_linear_2117_6017)"></path> <path data-v-aa5e1046="" d="M24.697 3.10569C23.9142 3.32502 23.5516 3.59054 23.2409 3.83875C23.2409 3.83875 23.9488 3.59054 24.9674 3.48088C27.8567 3.16341 28.0236 4.24281 31.2582 2.99024C31.3675 2.97293 31.3962 3.0595 31.3675 3.10569C30.9358 3.85607 30.4581 4.68727 28.6509 4.76231C26.6826 4.84313 25.6582 4.05233 23.8106 4.28899C22.6308 4.43906 22.0207 4.80849 21.6811 5.03361C25.7099 4.26012 25.3761 6.03798 29.3243 5.09133C29.3703 5.07978 29.4222 5.06823 29.4683 5.07401C29.5718 5.08555 29.6122 5.21255 29.5488 5.28182C29.52 5.31644 29.4798 5.35108 29.451 5.38571C28.933 5.94561 28.3862 6.55747 26.5444 6.41894C24.3804 6.25731 24.2424 4.91239 20.1099 5.93984C24.1156 5.92253 24.0466 7.23859 27.0625 6.84609C27.1661 6.83455 27.2293 6.96154 27.1488 7.0308C27.1027 7.0712 27.0509 7.10583 27.0106 7.14048C26.556 7.49834 25.894 7.93703 24.6509 7.68305C22.061 7.14048 22.3891 6.06683 19.0567 6.65561C21.6523 6.72487 21.474 7.73501 24.1387 7.98321C24.1387 7.98321 24.1387 7.98321 24.1444 7.98321C24.2883 8.00053 24.3287 8.19101 24.2078 8.27183C24.1156 8.33532 24.012 8.38149 23.9142 8.4219C21.969 9.17806 21.0653 6.73064 18.6768 7.27901C20.3862 7.42908 20.248 8.0063 21.7905 8.42767C21.9573 8.47385 21.9402 8.69898 21.7559 8.71629C19.9258 8.901 20.0869 7.66574 18.9645 7.61956C18.6653 7.60802 18.389 7.76965 18.2393 8.03517C17.7962 8.80864 17.9746 9.54171 17.9458 9.94001C18.0494 10.3556 18.2049 10.7597 18.2106 11.1983C18.2164 11.5043 18.1876 11.8217 18.0897 12.1161C17.9055 12.7279 17.7214 13.3399 17.5314 13.9575C17.4912 14.0844 17.4969 14.223 17.5429 14.3442C17.612 14.529 17.6811 14.7079 17.7099 14.9041C17.7789 15.2331 17.7329 15.5737 17.6178 15.8911C17.3761 16.4857 17.1343 17.0802 16.8926 17.6806C16.8465 17.7902 16.8121 17.9057 16.7314 17.998C16.6106 18.0211 16.6221 17.8653 16.6336 17.7902C16.8696 15.5679 17.094 13.3456 17.3242 11.1233L17.5085 10.5923C17.1459 10.9039 16.9847 11.3368 16.7487 11.7236C16.7199 11.8159 16.5819 11.8332 16.5531 11.7294C16.576 11.3426 16.6278 10.956 16.6394 10.5691C16.6738 10.1767 16.6682 9.77838 16.8006 9.40318C16.9501 9.02222 17.2379 8.71629 17.4624 8.38728C17.8307 7.91395 18.107 7.37712 18.2969 6.81145C18.412 6.46512 18.6538 6.15919 18.9645 5.96871C20.0409 5.28759 20.6681 4.69881 21.6869 3.92534C22.625 3.21535 23.3502 2.66121 23.7647 2.49383C25.6582 1.71457 29.4625 2.55155 32.72 0.427373C32.8006 0.381191 32.9042 0.473539 32.841 0.606298C32.5359 1.37979 32.1733 1.8762 31.3099 2.30334C28.8236 3.53283 25.9689 2.7478 24.697 3.10569Z" fill="url(#paint10_linear_2117_6017)"></path> <path data-v-aa5e1046="" d="M17.1459 4.43905C17.1459 4.43905 16.9328 4.06386 16.4149 4.01768C16.0235 3.98305 15.8452 4.11581 15.8452 4.11581C15.8452 4.11581 16.3171 3.97728 16.6855 4.3063C17.0537 4.63531 16.8523 4.91815 16.8523 4.91815C16.8523 4.91815 17.2552 4.68149 17.1459 4.43905Z" fill="url(#paint11_linear_2117_6017)"></path> <path data-v-aa5e1046="" d="M17.1228 4.38707C17.1228 4.38707 16.8523 4.09847 16.2998 4.07537C16.2998 4.07537 16.6278 4.15618 16.6682 4.33512C16.7372 4.67569 16.438 5.13169 16.3804 5.35104C16.3344 5.54729 17.1228 4.38707 17.1228 4.38707Z" fill="url(#paint12_linear_2117_6017)"></path> <defs data-v-aa5e1046=""><linearGradient data-v-aa5e1046="" id="paint0_linear_2117_6017" x1="-103.17" y1="9.19451" x2="265.741" y2="9.19466" gradientUnits="userSpaceOnUse"><stop data-v-aa5e1046="" stop-color="#CC9754"></stop> <stop data-v-aa5e1046="" offset="0.0942408" stop-color="#B88234"></stop> <stop data-v-aa5e1046="" offset="0.193717" stop-color="#CCB381"></stop> <stop data-v-aa5e1046="" offset="0.314136" stop-color="#D19944"></stop> <stop data-v-aa5e1046="" offset="0.560209" stop-color="#FDE1A5"></stop> <stop data-v-aa5e1046="" offset="0.801047" stop-color="#CCB381"></stop> <stop data-v-aa5e1046="" offset="0.95288" stop-color="#C18F47"></stop> <stop data-v-aa5e1046="" offset="0.989529" stop-color="#9E681E"></stop> <stop data-v-aa5e1046="" offset="1" stop-color="#A3773B"></stop></linearGradient> <linearGradient data-v-aa5e1046="" id="paint1_linear_2117_6017" x1="-103.17" y1="9.19451" x2="265.741" y2="9.19466" gradientUnits="userSpaceOnUse"><stop data-v-aa5e1046="" stop-color="#CC9754"></stop> <stop data-v-aa5e1046="" offset="0.0942408" stop-color="#B88234"></stop> <stop data-v-aa5e1046="" offset="0.193717" stop-color="#CCB381"></stop> <stop data-v-aa5e1046="" offset="0.314136" stop-color="#D19944"></stop> <stop data-v-aa5e1046="" offset="0.560209" stop-color="#FDE1A5"></stop> <stop data-v-aa5e1046="" offset="0.801047" stop-color="#CCB381"></stop> <stop data-v-aa5e1046="" offset="0.95288" stop-color="#C18F47"></stop> <stop data-v-aa5e1046="" offset="0.989529" stop-color="#9E681E"></stop> <stop data-v-aa5e1046="" offset="1" stop-color="#A3773B"></stop></linearGradient> <linearGradient data-v-aa5e1046="" id="paint2_linear_2117_6017" x1="-103.17" y1="9.19451" x2="265.741" y2="9.19466" gradientUnits="userSpaceOnUse"><stop data-v-aa5e1046="" stop-color="#CC9754"></stop> <stop data-v-aa5e1046="" offset="0.0942408" stop-color="#B88234"></stop> <stop data-v-aa5e1046="" offset="0.193717" stop-color="#CCB381"></stop> <stop data-v-aa5e1046="" offset="0.314136" stop-color="#D19944"></stop> <stop data-v-aa5e1046="" offset="0.560209" stop-color="#FDE1A5"></stop> <stop data-v-aa5e1046="" offset="0.801047" stop-color="#CCB381"></stop> <stop data-v-aa5e1046="" offset="0.95288" stop-color="#C18F47"></stop> <stop data-v-aa5e1046="" offset="0.989529" stop-color="#9E681E"></stop> <stop data-v-aa5e1046="" offset="1" stop-color="#A3773B"></stop></linearGradient> <linearGradient data-v-aa5e1046="" id="paint3_linear_2117_6017" x1="-103.17" y1="9.19451" x2="265.741" y2="9.19466" gradientUnits="userSpaceOnUse"><stop data-v-aa5e1046="" stop-color="#CC9754"></stop> <stop data-v-aa5e1046="" offset="0.0942408" stop-color="#B88234"></stop> <stop data-v-aa5e1046="" offset="0.193717" stop-color="#CCB381"></stop> <stop data-v-aa5e1046="" offset="0.314136" stop-color="#D19944"></stop> <stop data-v-aa5e1046="" offset="0.560209" stop-color="#FDE1A5"></stop> <stop data-v-aa5e1046="" offset="0.801047" stop-color="#CCB381"></stop> <stop data-v-aa5e1046="" offset="0.95288" stop-color="#C18F47"></stop> <stop data-v-aa5e1046="" offset="0.989529" stop-color="#9E681E"></stop> <stop data-v-aa5e1046="" offset="1" stop-color="#A3773B"></stop></linearGradient> <linearGradient data-v-aa5e1046="" id="paint4_linear_2117_6017" x1="-103.17" y1="9.19451" x2="265.741" y2="9.19466" gradientUnits="userSpaceOnUse"><stop data-v-aa5e1046="" stop-color="#CC9754"></stop> <stop data-v-aa5e1046="" offset="0.0942408" stop-color="#B88234"></stop> <stop data-v-aa5e1046="" offset="0.193717" stop-color="#CCB381"></stop> <stop data-v-aa5e1046="" offset="0.314136" stop-color="#D19944"></stop> <stop data-v-aa5e1046="" offset="0.560209" stop-color="#FDE1A5"></stop> <stop data-v-aa5e1046="" offset="0.801047" stop-color="#CCB381"></stop> <stop data-v-aa5e1046="" offset="0.95288" stop-color="#C18F47"></stop> <stop data-v-aa5e1046="" offset="0.989529" stop-color="#9E681E"></stop> <stop data-v-aa5e1046="" offset="1" stop-color="#A3773B"></stop></linearGradient> <linearGradient data-v-aa5e1046="" id="paint5_linear_2117_6017" x1="-103.17" y1="9.19451" x2="265.741" y2="9.19466" gradientUnits="userSpaceOnUse"><stop data-v-aa5e1046="" stop-color="#CC9754"></stop> <stop data-v-aa5e1046="" offset="0.0942408" stop-color="#B88234"></stop> <stop data-v-aa5e1046="" offset="0.193717" stop-color="#CCB381"></stop> <stop data-v-aa5e1046="" offset="0.314136" stop-color="#D19944"></stop> <stop data-v-aa5e1046="" offset="0.560209" stop-color="#FDE1A5"></stop> <stop data-v-aa5e1046="" offset="0.801047" stop-color="#CCB381"></stop> <stop data-v-aa5e1046="" offset="0.95288" stop-color="#C18F47"></stop> <stop data-v-aa5e1046="" offset="0.989529" stop-color="#9E681E"></stop> <stop data-v-aa5e1046="" offset="1" stop-color="#A3773B"></stop></linearGradient> <linearGradient data-v-aa5e1046="" id="paint6_linear_2117_6017" x1="-103.17" y1="9.19451" x2="265.741" y2="9.19466" gradientUnits="userSpaceOnUse"><stop data-v-aa5e1046="" stop-color="#CC9754"></stop> <stop data-v-aa5e1046="" offset="0.0942408" stop-color="#B88234"></stop> <stop data-v-aa5e1046="" offset="0.193717" stop-color="#CCB381"></stop> <stop data-v-aa5e1046="" offset="0.314136" stop-color="#D19944"></stop> <stop data-v-aa5e1046="" offset="0.560209" stop-color="#FDE1A5"></stop> <stop data-v-aa5e1046="" offset="0.801047" stop-color="#CCB381"></stop> <stop data-v-aa5e1046="" offset="0.95288" stop-color="#C18F47"></stop> <stop data-v-aa5e1046="" offset="0.989529" stop-color="#9E681E"></stop> <stop data-v-aa5e1046="" offset="1" stop-color="#A3773B"></stop></linearGradient> <linearGradient data-v-aa5e1046="" id="paint7_linear_2117_6017" x1="-103.17" y1="9.19451" x2="265.741" y2="9.19466" gradientUnits="userSpaceOnUse"><stop data-v-aa5e1046="" stop-color="#CC9754"></stop> <stop data-v-aa5e1046="" offset="0.0942408" stop-color="#B88234"></stop> <stop data-v-aa5e1046="" offset="0.193717" stop-color="#CCB381"></stop> <stop data-v-aa5e1046="" offset="0.314136" stop-color="#D19944"></stop> <stop data-v-aa5e1046="" offset="0.560209" stop-color="#FDE1A5"></stop> <stop data-v-aa5e1046="" offset="0.801047" stop-color="#CCB381"></stop> <stop data-v-aa5e1046="" offset="0.95288" stop-color="#C18F47"></stop> <stop data-v-aa5e1046="" offset="0.989529" stop-color="#9E681E"></stop> <stop data-v-aa5e1046="" offset="1" stop-color="#A3773B"></stop></linearGradient> <linearGradient data-v-aa5e1046="" id="paint8_linear_2117_6017" x1="-103.17" y1="9.19451" x2="265.741" y2="9.19466" gradientUnits="userSpaceOnUse"><stop data-v-aa5e1046="" stop-color="#CC9754"></stop> <stop data-v-aa5e1046="" offset="0.0942408" stop-color="#B88234"></stop> <stop data-v-aa5e1046="" offset="0.193717" stop-color="#CCB381"></stop> <stop data-v-aa5e1046="" offset="0.314136" stop-color="#D19944"></stop> <stop data-v-aa5e1046="" offset="0.560209" stop-color="#FDE1A5"></stop> <stop data-v-aa5e1046="" offset="0.801047" stop-color="#CCB381"></stop> <stop data-v-aa5e1046="" offset="0.95288" stop-color="#C18F47"></stop> <stop data-v-aa5e1046="" offset="0.989529" stop-color="#9E681E"></stop> <stop data-v-aa5e1046="" offset="1" stop-color="#A3773B"></stop></linearGradient> <linearGradient data-v-aa5e1046="" id="paint9_linear_2117_6017" x1="-103.17" y1="9.19451" x2="265.741" y2="9.19466" gradientUnits="userSpaceOnUse"><stop data-v-aa5e1046="" stop-color="#CC9754"></stop> <stop data-v-aa5e1046="" offset="0.0942408" stop-color="#B88234"></stop> <stop data-v-aa5e1046="" offset="0.193717" stop-color="#CCB381"></stop> <stop data-v-aa5e1046="" offset="0.314136" stop-color="#D19944"></stop> <stop data-v-aa5e1046="" offset="0.560209" stop-color="#FDE1A5"></stop> <stop data-v-aa5e1046="" offset="0.801047" stop-color="#CCB381"></stop> <stop data-v-aa5e1046="" offset="0.95288" stop-color="#C18F47"></stop> <stop data-v-aa5e1046="" offset="0.989529" stop-color="#9E681E"></stop> <stop data-v-aa5e1046="" offset="1" stop-color="#A3773B"></stop></linearGradient> <linearGradient data-v-aa5e1046="" id="paint10_linear_2117_6017" x1="-103.17" y1="9.19451" x2="265.741" y2="9.19466" gradientUnits="userSpaceOnUse"><stop data-v-aa5e1046="" stop-color="#CC9754"></stop> <stop data-v-aa5e1046="" offset="0.0942408" stop-color="#B88234"></stop> <stop data-v-aa5e1046="" offset="0.193717" stop-color="#CCB381"></stop> <stop data-v-aa5e1046="" offset="0.314136" stop-color="#D19944"></stop> <stop data-v-aa5e1046="" offset="0.560209" stop-color="#FDE1A5"></stop> <stop data-v-aa5e1046="" offset="0.801047" stop-color="#CCB381"></stop> <stop data-v-aa5e1046="" offset="0.95288" stop-color="#C18F47"></stop> <stop data-v-aa5e1046="" offset="0.989529" stop-color="#9E681E"></stop> <stop data-v-aa5e1046="" offset="1" stop-color="#A3773B"></stop></linearGradient> <linearGradient data-v-aa5e1046="" id="paint11_linear_2117_6017" x1="-103.17" y1="9.19451" x2="265.741" y2="9.19466" gradientUnits="userSpaceOnUse"><stop data-v-aa5e1046="" stop-color="#CC9754"></stop> <stop data-v-aa5e1046="" offset="0.0942408" stop-color="#B88234"></stop> <stop data-v-aa5e1046="" offset="0.193717" stop-color="#CCB381"></stop> <stop data-v-aa5e1046="" offset="0.314136" stop-color="#D19944"></stop> <stop data-v-aa5e1046="" offset="0.560209" stop-color="#FDE1A5"></stop> <stop data-v-aa5e1046="" offset="0.801047" stop-color="#CCB381"></stop> <stop data-v-aa5e1046="" offset="0.95288" stop-color="#C18F47"></stop> <stop data-v-aa5e1046="" offset="0.989529" stop-color="#9E681E"></stop> <stop data-v-aa5e1046="" offset="1" stop-color="#A3773B"></stop></linearGradient> <linearGradient data-v-aa5e1046="" id="paint12_linear_2117_6017" x1="-103.17" y1="9.19451" x2="265.741" y2="9.19466" gradientUnits="userSpaceOnUse"><stop data-v-aa5e1046="" stop-color="#CC9754"></stop> <stop data-v-aa5e1046="" offset="0.0942408" stop-color="#B88234"></stop> <stop data-v-aa5e1046="" offset="0.193717" stop-color="#CCB381"></stop> <stop data-v-aa5e1046="" offset="0.314136" stop-color="#D19944"></stop> <stop data-v-aa5e1046="" offset="0.560209" stop-color="#FDE1A5"></stop> <stop data-v-aa5e1046="" offset="0.801047" stop-color="#CCB381"></stop> <stop data-v-aa5e1046="" offset="0.95288" stop-color="#C18F47"></stop> <stop data-v-aa5e1046="" offset="0.989529" stop-color="#9E681E"></stop> <stop data-v-aa5e1046="" offset="1" stop-color="#A3773B"></stop></linearGradient></defs></svg>