<svg data-v-aa5e1046="" width="68" height="17" viewBox="0 0 68 17" fill="none" xmlns="http://www.w3.org/2000/svg" class="md:opacity-0 md:invisible md:w-0 footer-text transition-all duration-500"><g data-v-aa5e1046="" opacity="0.6"><path data-v-aa5e1046="" d="M35.7394 12.8276C34.7293 12.9929 33.7068 13.0696 32.6835 13.0568C30.7642 13.0568 28.7059 11.8033 28.7059 8.30322V6.25474C28.7059 2.54353 30.8636 1.48801 32.8196 1.48801C33.7972 1.47935 34.7737 1.55084 35.7394 1.70171C35.8755 1.71734 36.0013 1.77731 36.0013 1.93107V2.69467C36.0013 2.80152 35.941 2.84843 35.8021 2.84843H35.7419C34.8358 2.77286 34.129 2.74158 32.8221 2.74158C31.3951 2.74158 30.1041 3.5052 30.1041 6.25474V8.30322C30.1041 10.8259 31.2565 11.8191 32.686 11.8191C33.6209 11.8191 34.2572 11.7591 34.6185 11.7276V7.35717C34.6153 7.31858 34.62 7.27975 34.6325 7.24307C34.6448 7.20639 34.6647 7.17259 34.6906 7.14381C34.7167 7.115 34.7482 7.09177 34.7836 7.07558C34.819 7.05941 34.8572 7.05057 34.896 7.04964H35.7262C35.8051 7.05366 35.8795 7.08792 35.9336 7.14523C35.9879 7.20255 36.0175 7.27848 36.0169 7.35717V12.4914C36.0193 12.5714 35.9923 12.6496 35.9415 12.7113C35.8903 12.7732 35.8185 12.8145 35.7394 12.8276Z" fill="url(#paint0_linear_246_3290)"></path> <path data-v-aa5e1046="" d="M41.7411 5.61419C41.0262 5.58597 40.3105 5.63755 39.607 5.76795V12.6458C39.6109 12.7203 39.5858 12.7934 39.537 12.85C39.4882 12.9068 39.4198 12.9428 39.3452 12.9505H38.5465C38.4691 12.9466 38.3967 12.9122 38.3445 12.8552C38.2925 12.7981 38.2654 12.7228 38.269 12.6458V5.21804C38.2735 5.14129 38.3013 5.06768 38.3483 5.0068C38.3956 4.94591 38.46 4.90056 38.5334 4.87663C39.4079 4.49353 40.4686 4.44922 41.7411 4.44922C41.9427 4.44922 42.0659 4.46485 42.0659 4.67855V5.37964C42.0659 5.53862 42.0346 5.61419 41.7411 5.61419Z" fill="url(#paint1_linear_246_3290)"></path> <path data-v-aa5e1046="" d="M46.8369 13.0568C44.5798 13.0568 43.4329 11.5741 43.4329 9.32747V8.1651C43.4329 5.91857 44.5849 4.43823 46.8369 4.43823C49.0888 4.43823 50.2411 5.91857 50.2411 8.1651V9.32747C50.2411 11.5741 49.081 13.0568 46.8369 13.0568ZM48.9107 8.1651C48.9107 6.60138 48.2798 5.61364 46.8369 5.61364C45.3941 5.61364 44.7786 6.59357 44.7786 8.1651V9.32747C44.7786 10.8911 45.3941 11.8815 46.8369 11.8815C48.2798 11.8815 48.9107 10.9016 48.9107 9.32747V8.1651Z" fill="url(#paint2_linear_246_3290)"></path> <path data-v-aa5e1046="" d="M55.3627 13.0565H55.2163C54.1687 13.0565 52.0531 12.4753 52.0531 9.4652V4.84961C52.0496 4.81073 52.0546 4.77159 52.0672 4.73469C52.0799 4.69778 52.1003 4.66392 52.127 4.63524C52.1536 4.60658 52.1857 4.58372 52.2218 4.56812C52.2578 4.55254 52.2967 4.54456 52.3356 4.54468H53.1345C53.1731 4.54527 53.2114 4.55378 53.2466 4.56968C53.282 4.58559 53.3137 4.60854 53.3398 4.63714C53.3658 4.66575 53.3855 4.69937 53.3981 4.73591C53.4106 4.77247 53.4152 4.81116 53.412 4.84961V9.4652C53.412 11.2897 54.1976 11.8811 55.2241 11.8811H55.3627C56.3893 11.8811 57.1748 11.2999 57.1748 9.4652V4.84961C57.1716 4.81138 57.1763 4.77288 57.1886 4.73652C57.2009 4.70015 57.2203 4.66664 57.2462 4.63809C57.2719 4.60953 57.3033 4.5865 57.3383 4.57045C57.3733 4.55439 57.4111 4.54563 57.4498 4.54468H58.2484C58.2872 4.54527 58.3254 4.55378 58.3608 4.56968C58.396 4.58559 58.4278 4.60854 58.4538 4.63714C58.4797 4.66575 58.4997 4.69937 58.5121 4.73591C58.5244 4.77247 58.5294 4.81116 58.5259 4.84961V9.4652C58.5259 12.4753 56.405 13.0565 55.3627 13.0565Z" fill="url(#paint3_linear_246_3290)"></path> <path data-v-aa5e1046="" d="M63.7607 13.0575C63.1584 13.0496 62.5578 12.9938 61.9644 12.8908V15.6559C61.9644 15.6941 61.957 15.7315 61.9423 15.7667C61.9277 15.8017 61.9063 15.8336 61.8794 15.8606C61.8523 15.8874 61.8202 15.9088 61.785 15.9233C61.7496 15.9377 61.7119 15.9453 61.6738 15.9453H60.8882C60.8507 15.9448 60.8136 15.937 60.7793 15.9224C60.745 15.9075 60.714 15.886 60.6881 15.859C60.6621 15.8321 60.6419 15.8001 60.6287 15.7653C60.6153 15.7305 60.6092 15.6932 60.6107 15.6559V5.13734C60.6107 4.93927 60.6578 4.84807 60.9328 4.78812C61.8582 4.56479 62.8061 4.44678 63.7582 4.43628C66.0466 4.43628 67.1073 5.91659 67.1073 8.21005V9.30727C67.1099 11.7128 66.0021 13.0575 63.7607 13.0575ZM65.756 8.21265C65.756 6.60724 65.2822 5.56996 63.7607 5.56996C63.1589 5.57344 62.5582 5.62398 61.9644 5.72113V11.7728C62.5584 11.8697 63.1589 11.9213 63.7607 11.9265C65.2664 11.9265 65.756 10.9491 65.756 9.3203V8.21265Z" fill="url(#paint4_linear_246_3290)"></path></g> <path data-v-aa5e1046="" d="M9.01185 12.9329C8.32048 13.0398 6.3931 13.1754 5.72548 13.1754C2.76137 13.1754 0.750244 12.4351 0.750244 8.7292V1.97393C0.750881 1.93479 0.759364 1.8962 0.775264 1.86037C0.791165 1.82456 0.813847 1.79223 0.842468 1.76529C0.870877 1.73836 0.904588 1.71735 0.941266 1.70351C0.978155 1.68966 1.01738 1.68325 1.0566 1.68463H3.56001C3.59923 1.68289 3.63867 1.68905 3.67556 1.70277C3.71244 1.7165 3.74637 1.73747 3.77499 1.76448C3.8034 1.79148 3.8263 1.82395 3.84199 1.85993C3.85767 1.89592 3.86594 1.93468 3.86636 1.97393V8.7292C3.86636 10.1053 4.32727 10.5535 5.41913 10.5535C5.91205 10.552 6.40434 10.5206 6.89345 10.4597V1.97393C6.89366 1.93468 6.90193 1.89592 6.91762 1.85993C6.9333 1.82395 6.95621 1.79148 6.98482 1.76448C7.01345 1.73747 7.04715 1.7165 7.08405 1.70277C7.12093 1.68905 7.16037 1.68289 7.1998 1.68463H9.68731C9.76851 1.68106 9.8476 1.70944 9.90802 1.76355C9.96823 1.81769 10.0047 1.89327 10.0094 1.97393V11.755C10.0094 12.6098 9.74752 12.826 9.01185 12.9329Z" fill="url(#paint5_linear_246_3290)"></path> <path data-v-aa5e1046="" d="M14.8304 13.0388H12.3114C12.2308 13.0369 12.1542 13.0036 12.0979 12.946C12.0416 12.8886 12.0101 12.8115 12.0101 12.7314V1.97294C12.0109 1.93426 12.0192 1.8961 12.0346 1.86062C12.0502 1.82515 12.0726 1.79308 12.1006 1.76621C12.1286 1.73935 12.1615 1.71823 12.1977 1.70407C12.2338 1.68991 12.2725 1.68295 12.3114 1.68364H14.8304C14.8697 1.6819 14.9091 1.68806 14.946 1.70178C14.9829 1.71551 15.0168 1.73648 15.0452 1.76349C15.0738 1.7905 15.0967 1.82296 15.1124 1.85894C15.1281 1.89494 15.1364 1.9337 15.1368 1.97294V12.7314C15.1371 12.7717 15.1294 12.8115 15.1142 12.8487C15.0988 12.886 15.0764 12.92 15.048 12.9487C15.0193 12.9771 14.9856 12.9999 14.9482 13.0153C14.9108 13.0308 14.8708 13.0388 14.8304 13.0388Z" fill="url(#paint6_linear_246_3290)"></path> <path data-v-aa5e1046="" d="M23.7356 12.9006C23.037 13.0988 22.3121 13.1912 21.5858 13.1742C18.7604 13.1742 16.8567 11.647 16.8567 8.14689V6.58316C16.8567 3.0726 18.7604 1.54538 21.5858 1.54538C22.3121 1.52986 23.0366 1.62208 23.7356 1.81902C23.9817 1.89722 24.0735 1.94151 24.0735 2.15522V4.11247C24.0735 4.31054 23.9817 4.40178 23.8117 4.40178H23.7644C23.0507 4.31878 22.3331 4.27355 21.6146 4.26626C20.7846 4.26626 20.0434 4.63111 20.0434 6.57273V8.13645C20.0434 10.0624 20.7818 10.4456 21.6146 10.4456C22.3331 10.4375 23.0507 10.3914 23.7644 10.3074H23.7932C23.9766 10.3074 24.0551 10.3986 24.0551 10.5967V12.5643C24.0735 12.7625 23.9817 12.825 23.7356 12.9006Z" fill="url(#paint7_linear_246_3290)"></path> <defs data-v-aa5e1046=""><linearGradient data-v-aa5e1046="" id="paint0_linear_246_3290" x1="5.75165" y1="7.27275" x2="87.8306" y2="7.27276" gradientUnits="userSpaceOnUse"><stop data-v-aa5e1046="" stop-color="#CC9754"></stop> <stop data-v-aa5e1046="" offset="0.0942408" stop-color="#B88234"></stop> <stop data-v-aa5e1046="" offset="0.193717" stop-color="#CCB381"></stop> <stop data-v-aa5e1046="" offset="0.314136" stop-color="#D19944"></stop> <stop data-v-aa5e1046="" offset="0.560209" stop-color="#FDE1A5"></stop> <stop data-v-aa5e1046="" offset="0.801047" stop-color="#CCB381"></stop> <stop data-v-aa5e1046="" offset="0.95288" stop-color="#C18F47"></stop> <stop data-v-aa5e1046="" offset="0.989529" stop-color="#9E681E"></stop> <stop data-v-aa5e1046="" offset="1" stop-color="#A3773B"></stop></linearGradient> <linearGradient data-v-aa5e1046="" id="paint1_linear_246_3290" x1="26.3468" y1="8.69986" x2="68.9764" y2="8.69986" gradientUnits="userSpaceOnUse"><stop data-v-aa5e1046="" stop-color="#CC9754"></stop> <stop data-v-aa5e1046="" offset="0.0942408" stop-color="#B88234"></stop> <stop data-v-aa5e1046="" offset="0.193717" stop-color="#CCB381"></stop> <stop data-v-aa5e1046="" offset="0.314136" stop-color="#D19944"></stop> <stop data-v-aa5e1046="" offset="0.560209" stop-color="#FDE1A5"></stop> <stop data-v-aa5e1046="" offset="0.801047" stop-color="#CCB381"></stop> <stop data-v-aa5e1046="" offset="0.95288" stop-color="#C18F47"></stop> <stop data-v-aa5e1046="" offset="0.989529" stop-color="#9E681E"></stop> <stop data-v-aa5e1046="" offset="1" stop-color="#A3773B"></stop></linearGradient> <linearGradient data-v-aa5e1046="" id="paint2_linear_246_3290" x1="22.0575" y1="8.74752" x2="98.4905" y2="8.74754" gradientUnits="userSpaceOnUse"><stop data-v-aa5e1046="" stop-color="#CC9754"></stop> <stop data-v-aa5e1046="" offset="0.0942408" stop-color="#B88234"></stop> <stop data-v-aa5e1046="" offset="0.193717" stop-color="#CCB381"></stop> <stop data-v-aa5e1046="" offset="0.314136" stop-color="#D19944"></stop> <stop data-v-aa5e1046="" offset="0.560209" stop-color="#FDE1A5"></stop> <stop data-v-aa5e1046="" offset="0.801047" stop-color="#CCB381"></stop> <stop data-v-aa5e1046="" offset="0.95288" stop-color="#C18F47"></stop> <stop data-v-aa5e1046="" offset="0.989529" stop-color="#9E681E"></stop> <stop data-v-aa5e1046="" offset="1" stop-color="#A3773B"></stop></linearGradient> <linearGradient data-v-aa5e1046="" id="paint3_linear_246_3290" x1="31.7229" y1="8.80058" x2="104.415" y2="8.80059" gradientUnits="userSpaceOnUse"><stop data-v-aa5e1046="" stop-color="#CC9754"></stop> <stop data-v-aa5e1046="" offset="0.0942408" stop-color="#B88234"></stop> <stop data-v-aa5e1046="" offset="0.193717" stop-color="#CCB381"></stop> <stop data-v-aa5e1046="" offset="0.314136" stop-color="#D19944"></stop> <stop data-v-aa5e1046="" offset="0.560209" stop-color="#FDE1A5"></stop> <stop data-v-aa5e1046="" offset="0.801047" stop-color="#CCB381"></stop> <stop data-v-aa5e1046="" offset="0.95288" stop-color="#C18F47"></stop> <stop data-v-aa5e1046="" offset="0.989529" stop-color="#9E681E"></stop> <stop data-v-aa5e1046="" offset="1" stop-color="#A3773B"></stop></linearGradient> <linearGradient data-v-aa5e1046="" id="paint4_linear_246_3290" x1="40.2128" y1="10.1908" x2="113.15" y2="10.1908" gradientUnits="userSpaceOnUse"><stop data-v-aa5e1046="" stop-color="#CC9754"></stop> <stop data-v-aa5e1046="" offset="0.0942408" stop-color="#B88234"></stop> <stop data-v-aa5e1046="" offset="0.193717" stop-color="#CCB381"></stop> <stop data-v-aa5e1046="" offset="0.314136" stop-color="#D19944"></stop> <stop data-v-aa5e1046="" offset="0.560209" stop-color="#FDE1A5"></stop> <stop data-v-aa5e1046="" offset="0.801047" stop-color="#CCB381"></stop> <stop data-v-aa5e1046="" offset="0.95288" stop-color="#C18F47"></stop> <stop data-v-aa5e1046="" offset="0.989529" stop-color="#9E681E"></stop> <stop data-v-aa5e1046="" offset="1" stop-color="#A3773B"></stop></linearGradient> <linearGradient data-v-aa5e1046="" id="paint5_linear_246_3290" x1="-28.3201" y1="7.42985" x2="75.6283" y2="7.42986" gradientUnits="userSpaceOnUse"><stop data-v-aa5e1046="" stop-color="#CC9754"></stop> <stop data-v-aa5e1046="" offset="0.0942408" stop-color="#B88234"></stop> <stop data-v-aa5e1046="" offset="0.193717" stop-color="#CCB381"></stop> <stop data-v-aa5e1046="" offset="0.314136" stop-color="#D19944"></stop> <stop data-v-aa5e1046="" offset="0.560209" stop-color="#FDE1A5"></stop> <stop data-v-aa5e1046="" offset="0.801047" stop-color="#CCB381"></stop> <stop data-v-aa5e1046="" offset="0.95288" stop-color="#C18F47"></stop> <stop data-v-aa5e1046="" offset="0.989529" stop-color="#9E681E"></stop> <stop data-v-aa5e1046="" offset="1" stop-color="#A3773B"></stop></linearGradient> <linearGradient data-v-aa5e1046="" id="paint6_linear_246_3290" x1="2.19339" y1="7.36107" x2="37.2957" y2="7.36107" gradientUnits="userSpaceOnUse"><stop data-v-aa5e1046="" stop-color="#CC9754"></stop> <stop data-v-aa5e1046="" offset="0.0942408" stop-color="#B88234"></stop> <stop data-v-aa5e1046="" offset="0.193717" stop-color="#CCB381"></stop> <stop data-v-aa5e1046="" offset="0.314136" stop-color="#D19944"></stop> <stop data-v-aa5e1046="" offset="0.560209" stop-color="#FDE1A5"></stop> <stop data-v-aa5e1046="" offset="0.801047" stop-color="#CCB381"></stop> <stop data-v-aa5e1046="" offset="0.95288" stop-color="#C18F47"></stop> <stop data-v-aa5e1046="" offset="0.989529" stop-color="#9E681E"></stop> <stop data-v-aa5e1046="" offset="1" stop-color="#A3773B"></stop></linearGradient> <linearGradient data-v-aa5e1046="" id="paint7_linear_246_3290" x1="-5.80165" y1="7.35993" x2="75.2191" y2="7.35995" gradientUnits="userSpaceOnUse"><stop data-v-aa5e1046="" stop-color="#CC9754"></stop> <stop data-v-aa5e1046="" offset="0.0942408" stop-color="#B88234"></stop> <stop data-v-aa5e1046="" offset="0.193717" stop-color="#CCB381"></stop> <stop data-v-aa5e1046="" offset="0.314136" stop-color="#D19944"></stop> <stop data-v-aa5e1046="" offset="0.560209" stop-color="#FDE1A5"></stop> <stop data-v-aa5e1046="" offset="0.801047" stop-color="#CCB381"></stop> <stop data-v-aa5e1046="" offset="0.95288" stop-color="#C18F47"></stop> <stop data-v-aa5e1046="" offset="0.989529" stop-color="#9E681E"></stop> <stop data-v-aa5e1046="" offset="1" stop-color="#A3773B"></stop></linearGradient></defs></svg>